# xmcd CD database file
#
# Track frame offsets:
#	150
#	13185
#	25790
#	52290
#	75518
#	88560
#	104023
#	122283
#	138998
#	155935
#
# Disc length: 2272 seconds
#
# Revision: 0
# Processed by: cddbd v1.5.1PL0 Copyright (c) Steve Scherf et al.
# Submitted via: CDex 1.60beta1
#
DISCID=7f08de0a
DTITLE=Various Artist - Isn't It Romantic, Vol. 1
DYEAR=1900
DGENRE=Jazz
TTITLE0=Billie Holiday/I Only Have Eyes For You
TTITLE1=Louis Jordan/Knock Me A Kiss
TTITLE2=Ella Fitzgerald and Louis Armstrong/Cheek To Cheek
TTITLE3=Oscar Peterson/My One And Only Love
TTITLE4=Bing Crosby/Embraceable You
TTITLE5=Stan Getz/Love Is Here To Stay
TTITLE6=Helen Merrill/The Nearness Of You
TTITLE7=Billy Eckstine/Smoke Gets In Your Eyes
TTITLE8=Anita O'Day/Fly Me To The Moon
TTITLE9=Mel Torme/'Round Midnight
EXTD=
EXTT0=
EXTT1=
EXTT2=
EXTT3=
EXTT4=
EXTT5=
EXTT6=
EXTT7=
EXTT8=
EXTT9=
PLAYORDER=
